<mxfile host="app.diagrams.net" modified="2023-07-07T09:22:38.151Z" agent="Mozilla/5.0 (Windows NT 10.0; Win64; x64) AppleWebKit/537.36 (KHTML, like Gecko) Chrome/114.0.0.0 Safari/537.36" etag="hoB2VwssJbAFmCX9lL06" version="21.6.1" type="github">
  <diagram name="페이지-1" id="gzbdfS1R5sBUokpKBte7">
    <mxGraphModel dx="1522" dy="804" grid="1" gridSize="10" guides="1" tooltips="1" connect="1" arrows="1" fold="1" page="1" pageScale="1" pageWidth="827" pageHeight="1169" math="0" shadow="0">
      <root>
        <mxCell id="0" />
        <mxCell id="1" parent="0" />
        <mxCell id="_Ti-N3cmDo3iz-n7Vr8E-5" style="edgeStyle=orthogonalEdgeStyle;rounded=0;orthogonalLoop=1;jettySize=auto;html=1;exitX=0.5;exitY=1;exitDx=0;exitDy=0;entryX=0.5;entryY=0;entryDx=0;entryDy=0;" edge="1" parent="1" source="_Ti-N3cmDo3iz-n7Vr8E-1" target="_Ti-N3cmDo3iz-n7Vr8E-2">
          <mxGeometry relative="1" as="geometry" />
        </mxCell>
        <mxCell id="_Ti-N3cmDo3iz-n7Vr8E-1" value="main" style="ellipse;whiteSpace=wrap;html=1;" vertex="1" parent="1">
          <mxGeometry x="160" y="140" width="80" height="40" as="geometry" />
        </mxCell>
        <mxCell id="_Ti-N3cmDo3iz-n7Vr8E-6" style="edgeStyle=orthogonalEdgeStyle;rounded=0;orthogonalLoop=1;jettySize=auto;html=1;exitX=0.5;exitY=1;exitDx=0;exitDy=0;entryX=0.5;entryY=0;entryDx=0;entryDy=0;" edge="1" parent="1" source="_Ti-N3cmDo3iz-n7Vr8E-2" target="_Ti-N3cmDo3iz-n7Vr8E-3">
          <mxGeometry relative="1" as="geometry" />
        </mxCell>
        <mxCell id="_Ti-N3cmDo3iz-n7Vr8E-2" value="static int counts = 0;&lt;br&gt;static int temp = 0;&lt;br&gt;static int different = 0;&lt;br&gt;&lt;div&gt;string search = &quot;ABABCDEFGHA&quot;;&lt;/div&gt;&lt;div&gt;string answer = &quot;DEF&quot;;&lt;span style=&quot;&quot;&gt;&lt;/span&gt;&lt;/div&gt;" style="rounded=0;whiteSpace=wrap;html=1;" vertex="1" parent="1">
          <mxGeometry x="85" y="210" width="230" height="90" as="geometry" />
        </mxCell>
        <mxCell id="_Ti-N3cmDo3iz-n7Vr8E-7" style="edgeStyle=orthogonalEdgeStyle;rounded=0;orthogonalLoop=1;jettySize=auto;html=1;exitX=0.5;exitY=1;exitDx=0;exitDy=0;entryX=0.5;entryY=0;entryDx=0;entryDy=0;" edge="1" parent="1" source="_Ti-N3cmDo3iz-n7Vr8E-3" target="_Ti-N3cmDo3iz-n7Vr8E-4">
          <mxGeometry relative="1" as="geometry" />
        </mxCell>
        <mxCell id="_Ti-N3cmDo3iz-n7Vr8E-3" value="SearchString(search, answer);" style="shape=process;whiteSpace=wrap;html=1;backgroundOutline=1;" vertex="1" parent="1">
          <mxGeometry x="90" y="330" width="220" height="60" as="geometry" />
        </mxCell>
        <mxCell id="_Ti-N3cmDo3iz-n7Vr8E-4" value="return 0;" style="ellipse;whiteSpace=wrap;html=1;" vertex="1" parent="1">
          <mxGeometry x="165" y="420" width="70" height="40" as="geometry" />
        </mxCell>
        <mxCell id="_Ti-N3cmDo3iz-n7Vr8E-31" style="edgeStyle=orthogonalEdgeStyle;rounded=0;orthogonalLoop=1;jettySize=auto;html=1;exitX=0.5;exitY=1;exitDx=0;exitDy=0;entryX=0.5;entryY=0;entryDx=0;entryDy=0;" edge="1" parent="1" source="_Ti-N3cmDo3iz-n7Vr8E-8" target="_Ti-N3cmDo3iz-n7Vr8E-9">
          <mxGeometry relative="1" as="geometry" />
        </mxCell>
        <mxCell id="_Ti-N3cmDo3iz-n7Vr8E-8" value="void SearchString(string search, string answer)" style="ellipse;whiteSpace=wrap;html=1;" vertex="1" parent="1">
          <mxGeometry x="685" y="140" width="260" height="80" as="geometry" />
        </mxCell>
        <mxCell id="_Ti-N3cmDo3iz-n7Vr8E-9" value="반복&lt;span style=&quot;white-space: pre;&quot;&gt;&#x9;&lt;/span&gt;&lt;span style=&quot;white-space: pre;&quot;&gt;&#x9;&lt;/span&gt;&lt;span style=&quot;white-space: pre;&quot;&gt;&#x9;&lt;/span&gt;&lt;span style=&quot;white-space: pre;&quot;&gt;&#x9;&lt;/span&gt;&lt;span style=&quot;white-space: pre;&quot;&gt;&#x9;&lt;/span&gt;int i : 0, 1, search.size()" style="swimlane;whiteSpace=wrap;html=1;" vertex="1" parent="1">
          <mxGeometry x="550" y="260" width="530" height="510" as="geometry" />
        </mxCell>
        <mxCell id="_Ti-N3cmDo3iz-n7Vr8E-13" value="Y" style="edgeStyle=orthogonalEdgeStyle;rounded=0;orthogonalLoop=1;jettySize=auto;html=1;exitX=0.5;exitY=1;exitDx=0;exitDy=0;entryX=0.5;entryY=0;entryDx=0;entryDy=0;" edge="1" parent="_Ti-N3cmDo3iz-n7Vr8E-9" source="_Ti-N3cmDo3iz-n7Vr8E-10" target="_Ti-N3cmDo3iz-n7Vr8E-11">
          <mxGeometry relative="1" as="geometry" />
        </mxCell>
        <mxCell id="_Ti-N3cmDo3iz-n7Vr8E-18" value="N" style="edgeStyle=orthogonalEdgeStyle;rounded=0;orthogonalLoop=1;jettySize=auto;html=1;exitX=1;exitY=0.5;exitDx=0;exitDy=0;entryX=0;entryY=0.5;entryDx=0;entryDy=0;" edge="1" parent="_Ti-N3cmDo3iz-n7Vr8E-9" source="_Ti-N3cmDo3iz-n7Vr8E-10" target="_Ti-N3cmDo3iz-n7Vr8E-15">
          <mxGeometry relative="1" as="geometry" />
        </mxCell>
        <mxCell id="_Ti-N3cmDo3iz-n7Vr8E-10" value="search[temp + i] == answer[i]" style="rhombus;whiteSpace=wrap;html=1;" vertex="1" parent="_Ti-N3cmDo3iz-n7Vr8E-9">
          <mxGeometry x="60.75" y="90" width="185" height="80" as="geometry" />
        </mxCell>
        <mxCell id="_Ti-N3cmDo3iz-n7Vr8E-14" style="edgeStyle=orthogonalEdgeStyle;rounded=0;orthogonalLoop=1;jettySize=auto;html=1;exitX=0.5;exitY=1;exitDx=0;exitDy=0;entryX=0.5;entryY=0;entryDx=0;entryDy=0;" edge="1" parent="_Ti-N3cmDo3iz-n7Vr8E-9" source="_Ti-N3cmDo3iz-n7Vr8E-11" target="_Ti-N3cmDo3iz-n7Vr8E-12">
          <mxGeometry relative="1" as="geometry" />
        </mxCell>
        <mxCell id="_Ti-N3cmDo3iz-n7Vr8E-11" value="counts++;" style="rounded=0;whiteSpace=wrap;html=1;" vertex="1" parent="_Ti-N3cmDo3iz-n7Vr8E-9">
          <mxGeometry x="117" y="210" width="72.5" height="30" as="geometry" />
        </mxCell>
        <mxCell id="_Ti-N3cmDo3iz-n7Vr8E-23" style="edgeStyle=orthogonalEdgeStyle;rounded=0;orthogonalLoop=1;jettySize=auto;html=1;exitX=0.5;exitY=1;exitDx=0;exitDy=0;entryX=0.5;entryY=0;entryDx=0;entryDy=0;" edge="1" parent="_Ti-N3cmDo3iz-n7Vr8E-9" source="_Ti-N3cmDo3iz-n7Vr8E-12" target="_Ti-N3cmDo3iz-n7Vr8E-21">
          <mxGeometry relative="1" as="geometry">
            <mxPoint x="280.75" y="360" as="targetPoint" />
            <Array as="points">
              <mxPoint x="153.75" y="340" />
              <mxPoint x="290.75" y="340" />
            </Array>
          </mxGeometry>
        </mxCell>
        <mxCell id="_Ti-N3cmDo3iz-n7Vr8E-12" value="Print(search, answer);" style="shape=process;whiteSpace=wrap;html=1;backgroundOutline=1;" vertex="1" parent="_Ti-N3cmDo3iz-n7Vr8E-9">
          <mxGeometry x="72" y="270" width="162.5" height="60" as="geometry" />
        </mxCell>
        <mxCell id="_Ti-N3cmDo3iz-n7Vr8E-19" style="edgeStyle=orthogonalEdgeStyle;rounded=0;orthogonalLoop=1;jettySize=auto;html=1;exitX=0.5;exitY=1;exitDx=0;exitDy=0;" edge="1" parent="_Ti-N3cmDo3iz-n7Vr8E-9" source="_Ti-N3cmDo3iz-n7Vr8E-15">
          <mxGeometry relative="1" as="geometry">
            <mxPoint x="393.75" y="190" as="targetPoint" />
          </mxGeometry>
        </mxCell>
        <mxCell id="_Ti-N3cmDo3iz-n7Vr8E-15" value="&lt;div&gt;counts = 0;&lt;/div&gt;&lt;div&gt;i = -1;&lt;span style=&quot;&quot;&gt;&lt;/span&gt;&lt;/div&gt;" style="rounded=0;whiteSpace=wrap;html=1;" vertex="1" parent="_Ti-N3cmDo3iz-n7Vr8E-9">
          <mxGeometry x="350.75" y="110" width="85" height="40" as="geometry" />
        </mxCell>
        <mxCell id="_Ti-N3cmDo3iz-n7Vr8E-20" style="edgeStyle=orthogonalEdgeStyle;rounded=0;orthogonalLoop=1;jettySize=auto;html=1;exitX=0.5;exitY=1;exitDx=0;exitDy=0;entryX=0.5;entryY=0;entryDx=0;entryDy=0;" edge="1" parent="_Ti-N3cmDo3iz-n7Vr8E-9" source="_Ti-N3cmDo3iz-n7Vr8E-16" target="_Ti-N3cmDo3iz-n7Vr8E-17">
          <mxGeometry relative="1" as="geometry" />
        </mxCell>
        <mxCell id="_Ti-N3cmDo3iz-n7Vr8E-16" value="Print(search, answer);" style="shape=process;whiteSpace=wrap;html=1;backgroundOutline=1;" vertex="1" parent="_Ti-N3cmDo3iz-n7Vr8E-9">
          <mxGeometry x="317.25" y="195" width="152" height="60" as="geometry" />
        </mxCell>
        <mxCell id="_Ti-N3cmDo3iz-n7Vr8E-22" style="edgeStyle=orthogonalEdgeStyle;rounded=0;orthogonalLoop=1;jettySize=auto;html=1;exitX=0.5;exitY=1;exitDx=0;exitDy=0;" edge="1" parent="_Ti-N3cmDo3iz-n7Vr8E-9" source="_Ti-N3cmDo3iz-n7Vr8E-17" target="_Ti-N3cmDo3iz-n7Vr8E-21">
          <mxGeometry relative="1" as="geometry">
            <Array as="points">
              <mxPoint x="393.75" y="340" />
              <mxPoint x="290.75" y="340" />
            </Array>
          </mxGeometry>
        </mxCell>
        <mxCell id="_Ti-N3cmDo3iz-n7Vr8E-17" value="temp++;" style="rounded=0;whiteSpace=wrap;html=1;" vertex="1" parent="_Ti-N3cmDo3iz-n7Vr8E-9">
          <mxGeometry x="357" y="280" width="72.5" height="40" as="geometry" />
        </mxCell>
        <mxCell id="_Ti-N3cmDo3iz-n7Vr8E-29" value="Y" style="edgeStyle=orthogonalEdgeStyle;rounded=0;orthogonalLoop=1;jettySize=auto;html=1;exitX=1;exitY=0.5;exitDx=0;exitDy=0;entryX=0;entryY=0.5;entryDx=0;entryDy=0;" edge="1" parent="_Ti-N3cmDo3iz-n7Vr8E-9" source="_Ti-N3cmDo3iz-n7Vr8E-21" target="_Ti-N3cmDo3iz-n7Vr8E-26">
          <mxGeometry relative="1" as="geometry" />
        </mxCell>
        <mxCell id="_Ti-N3cmDo3iz-n7Vr8E-30" value="N" style="edgeStyle=orthogonalEdgeStyle;rounded=0;orthogonalLoop=1;jettySize=auto;html=1;exitX=0.5;exitY=1;exitDx=0;exitDy=0;" edge="1" parent="_Ti-N3cmDo3iz-n7Vr8E-9" source="_Ti-N3cmDo3iz-n7Vr8E-21">
          <mxGeometry relative="1" as="geometry">
            <mxPoint x="291" y="510" as="targetPoint" />
          </mxGeometry>
        </mxCell>
        <mxCell id="_Ti-N3cmDo3iz-n7Vr8E-21" value="answer.size() == counts" style="rhombus;whiteSpace=wrap;html=1;" vertex="1" parent="_Ti-N3cmDo3iz-n7Vr8E-9">
          <mxGeometry x="210.75" y="380" width="160" height="80" as="geometry" />
        </mxCell>
        <mxCell id="_Ti-N3cmDo3iz-n7Vr8E-26" value="End" style="ellipse;whiteSpace=wrap;html=1;" vertex="1" parent="_Ti-N3cmDo3iz-n7Vr8E-9">
          <mxGeometry x="420" y="405" width="60" height="30" as="geometry" />
        </mxCell>
        <mxCell id="_Ti-N3cmDo3iz-n7Vr8E-32" value="End" style="ellipse;whiteSpace=wrap;html=1;" vertex="1" parent="1">
          <mxGeometry x="810" y="810" width="60" height="30" as="geometry" />
        </mxCell>
        <mxCell id="_Ti-N3cmDo3iz-n7Vr8E-34" value="" style="endArrow=classic;html=1;rounded=0;entryX=0.5;entryY=0;entryDx=0;entryDy=0;" edge="1" parent="1" target="_Ti-N3cmDo3iz-n7Vr8E-32">
          <mxGeometry width="50" height="50" relative="1" as="geometry">
            <mxPoint x="840" y="770" as="sourcePoint" />
            <mxPoint x="940" y="730" as="targetPoint" />
          </mxGeometry>
        </mxCell>
      </root>
    </mxGraphModel>
  </diagram>
</mxfile>
